<?xml version="1.0" standalone="no"?>
<!DOCTYPE svg PUBLIC "-//W3C//DTD SVG 20010904//EN"
 "http://www.w3.org/TR/2001/REC-SVG-20010904/DTD/svg10.dtd">
<svg version="1.0" xmlns="http://www.w3.org/2000/svg"
 width="3258.000000pt" height="1364.000000pt" viewBox="0 0 3258.000000 1364.000000"
 preserveAspectRatio="xMidYMid meet">

<g transform="translate(0.000000,1364.000000) scale(0.100000,-0.100000)"
fill="#000000" stroke="none">
<path d="M3898 12293 c-29 -3 -48 -9 -48 -16 0 -7 -11 -115 -25 -242 -97 -912
-126 -1969 -75 -2735 49 -728 163 -1338 332 -1782 27 -70 32 -78 56 -78 51 0
1202 99 1392 120 47 5 141 14 210 20 212 19 795 82 800 86 2 3 9 200 13 437 5
238 11 434 13 436 3 3 102 12 222 20 l217 16 -3 40 c-4 67 -41 506 -48 564
l-6 54 -301 -6 c-361 -7 -762 -43 -1040 -94 l-90 -16 8 -96 c3 -52 9 -99 11
-103 3 -4 36 -8 73 -8 38 0 83 -3 100 -6 l31 -6 0 -94 0 -94 53 0 c101 0 92
24 106 -272 6 -143 10 -262 8 -264 -8 -9 -580 -4 -698 5 -234 19 -371 47 -388
80 -7 12 -27 20 -58 25 -73 10 -168 44 -192 69 -25 28 -38 107 -80 490 -63
565 -76 733 -64 816 13 86 39 162 83 238 23 40 41 57 83 77 61 30 207 61 363
76 79 7 889 36 1130 40 6 0 14 26 18 58 3 31 20 143 38 247 l31 190 -13 650
c-7 358 -15 711 -19 785 l-6 135 -50 7 c-186 26 -1123 110 -1420 128 -159 9
-662 11 -767 3z"/>
<path d="M8335 12259 c-164 -9 -539 -45 -595 -57 l-35 -8 3 -179 c7 -419 30
-998 48 -1187 l7 -68 183 0 184 0 0 -100 0 -99 73 -3 c61 -3 72 -6 71 -20 0
-10 -1 -405 -2 -878 l-2 -860 -240 0 c-273 0 -244 10 -281 -98 -57 -164 -87
-539 -71 -895 5 -120 11 -220 13 -222 2 -2 92 -11 199 -21 250 -23 992 -27
1135 -6 133 20 226 42 230 55 22 66 65 579 65 778 l0 156 -67 6 c-38 4 -90 7
-118 7 -63 0 -80 10 -71 43 6 25 5 25 -82 31 -48 4 -111 9 -140 13 l-54 6 6
141 c7 161 20 671 41 1545 10 457 17 606 26 612 15 9 143 18 391 27 97 4 180
11 185 16 14 13 6 560 -11 776 -25 317 -38 458 -45 469 -17 27 -688 40 -1046
20z"/>
<path d="M9520 12208 c0 -7 7 -83 14 -168 8 -85 20 -231 27 -325 22 -306 14
-823 -14 -851 -2 -2 -127 -9 -278 -15 -151 -6 -278 -15 -283 -20 -6 -5 -15
-244 -22 -561 -7 -304 -18 -719 -23 -923 -6 -203 -11 -415 -11 -471 l0 -101
67 -6 c37 -4 68 -6 69 -4 3 2 28 917 44 1576 6 228 11 416 13 417 1 1 130 8
287 15 157 6 286 13 288 14 1 1 8 72 13 156 15 217 -8 710 -57 1182 l-7 67
-50 15 c-62 18 -77 19 -77 3z"/>
<path d="M24370 12214 c-19 -2 -91 -9 -160 -15 -172 -14 -695 -115 -840 -162
-21 -6 -69 -44 -120 -94 l-85 -83 12 -417 c45 -1600 93 -3469 93 -3648 0 -71
4 -136 9 -143 6 -10 70 -18 234 -29 217 -15 226 -15 271 3 l46 19 0 804 0 804
73 -6 c39 -4 191 -19 337 -34 248 -26 295 -27 740 -28 510 0 931 18 954 41 8
7 16 52 19 106 4 51 15 224 27 383 42 604 52 844 57 1375 6 633 -10 1021 -43
1034 -21 8 -345 49 -529 66 -234 22 -442 30 -745 28 -173 0 -331 -3 -350 -4z
m401 -1351 c0 -5 6 -51 12 -103 l13 -95 66 -3 66 -3 13 -132 c26 -244 13 -681
-20 -701 -11 -7 -504 -54 -636 -61 -86 -5 -151 -2 -229 9 -60 9 -111 16 -113
16 -2 0 -3 11 -3 24 0 22 -5 25 -57 31 -61 8 -195 33 -200 39 -2 2 -11 45 -20
97 -14 72 -17 148 -16 329 1 208 21 522 35 535 3 3 209 9 459 14 250 4 493 9
542 9 48 1 87 -1 88 -5z"/>
<path d="M23918 10723 c-138 -4 -122 18 -138 -194 -19 -278 -5 -538 29 -540 9
0 37 -4 62 -8 l46 -7 -5 93 c-4 86 10 370 26 518 l7 60 250 6 c138 3 298 7
358 8 l107 1 0 35 0 35 -312 -2 c-172 -1 -366 -4 -430 -5z"/>
<path d="M15200 12189 c-58 -5 -139 -20 -180 -33 l-75 -23 -7 -174 c-26 -667
-37 -2902 -18 -3604 10 -378 29 -807 36 -814 7 -7 844 -61 903 -59 51 3 55 5
63 33 15 49 11 1015 -4 1485 -16 460 -16 465 30 476 45 12 66 -5 146 -117 45
-63 82 -106 86 -99 4 6 107 -129 234 -305 141 -194 232 -312 239 -308 7 4 170
125 364 270 194 145 355 263 358 263 3 0 5 -81 5 -180 0 -99 3 -180 6 -180 3
0 32 20 64 45 32 25 63 45 69 45 8 0 11 -65 11 -202 1 -255 18 -1209 22 -1212
6 -5 586 39 592 44 7 7 35 1030 76 2790 6 234 13 687 17 1006 l6 582 -39 6
c-99 16 -382 36 -499 35 -114 0 -140 -4 -210 -27 l-79 -27 -246 -397 c-135
-219 -248 -397 -252 -398 -3 0 -30 34 -60 75 -29 41 -56 75 -59 75 -3 0 -23
-27 -43 -60 -21 -33 -40 -60 -44 -59 -4 0 -173 227 -377 504 -203 278 -377
507 -385 510 -95 32 -543 53 -750 34z"/>
<path d="M27945 12173 c-22 -1 -103 -8 -180 -13 -235 -19 -557 -65 -742 -107
l-72 -16 -7 -55 c-9 -76 3 -1213 15 -1457 40 -747 70 -1217 122 -1852 44 -552
104 -1201 111 -1209 4 -3 108 4 232 15 124 12 234 21 245 21 26 0 220 157 226
183 4 19 495 4472 495 4490 0 7 -363 7 -445 0z"/>
<path d="M28520 12162 c0 -13 -500 -4546 -502 -4558 -2 -7 -65 -61 -142 -121
l-138 -109 -267 -23 c-146 -13 -268 -24 -269 -26 -9 -8 11 -85 21 -85 7 0 167
14 356 31 l344 30 110 87 c61 48 115 90 120 93 6 5 528 4668 523 4675 -5 7
-156 13 -156 6z"/>
<path d="M20210 12153 c-231 -8 -527 -42 -680 -76 -44 -10 -56 -17 -62 -37
-13 -44 -173 -1716 -232 -2435 -56 -669 -126 -1718 -126 -1875 l0 -60 33 0
c17 0 300 -14 627 -30 327 -16 618 -30 645 -30 l51 0 23 483 c12 265 25 484
27 487 5 4 685 -37 690 -43 2 -1 9 -44 15 -94 l12 -92 64 -7 c54 -5 64 -10 68
-28 2 -11 23 -151 45 -311 23 -159 43 -305 47 -322 l5 -33 340 0 339 0 -5 53
c-4 28 -29 257 -56 507 -59 534 -141 1201 -246 2000 -42 316 -113 870 -158
1230 l-83 655 -74 7 c-497 45 -967 64 -1309 51z m863 -1780 l107 -6 0 -46 c0
-25 3 -70 6 -98 l7 -53 68 0 c67 0 69 -1 69 -25 0 -14 14 -244 30 -511 17
-268 30 -488 28 -489 -2 -3 -777 41 -785 44 -2 1 -3 15 -3 31 0 17 -1 30 -2
30 -2 1 -60 5 -131 9 -70 4 -130 10 -132 13 -3 2 -9 228 -14 502 -8 371 -7
504 1 522 12 26 60 55 113 69 88 23 336 26 638 8z"/>
<path d="M20575 10251 c-146 -12 -131 18 -128 -269 2 -136 6 -325 9 -419 l6
-173 53 0 c29 0 61 -3 71 -7 15 -6 16 0 11 58 -4 35 -8 205 -9 377 -3 304 -2
314 17 325 40 22 154 36 303 37 143 0 152 1 152 19 0 39 -27 51 -109 51 -43 0
-125 2 -182 4 -57 2 -144 1 -194 -3z"/>
<path d="M6274 11959 c11 -292 26 -986 26 -1199 0 -176 -4 -217 -36 -424 -29
-184 -34 -230 -23 -236 18 -12 -4 -84 -35 -115 -26 -26 -21 -26 -724 -45 -513
-14 -771 -38 -830 -76 -34 -22 -83 -134 -95 -217 -9 -62 -4 -131 32 -492 49
-495 75 -703 88 -716 9 -9 105 -30 111 -24 2 2 -8 108 -22 237 -14 128 -38
363 -53 521 -26 279 -27 291 -11 367 19 90 70 202 105 230 79 62 365 91 1008
105 154 3 340 8 412 11 l132 6 5 32 c3 17 21 141 42 276 l37 245 -12 640 c-11
581 -25 1033 -33 1040 -2 2 -32 6 -67 10 l-64 7 7 -183z"/>
<path d="M13130 12109 c-646 -31 -1391 -80 -1910 -124 -277 -24 -423 -40 -462
-51 -27 -8 -107 -124 -124 -179 -58 -196 -106 -819 -134 -1755 -5 -179 -10
-447 -10 -596 l0 -271 133 -22 c382 -62 1088 -131 1356 -131 l74 0 -7 -41 c-4
-22 -9 -67 -13 -100 l-6 -59 76 0 c42 0 78 -4 81 -9 5 -7 -61 -462 -68 -469
-5 -4 -1337 170 -1392 183 -17 4 -27 -7 -56 -55 l-35 -60 4 -208 c3 -114 8
-261 11 -327 l7 -120 145 -3 c80 -2 773 -15 1540 -31 767 -15 1396 -27 1398
-26 15 11 54 454 82 925 10 184 22 381 25 437 l6 101 -73 6 c-68 6 -2332 126
-2371 126 -13 0 -17 8 -17 34 l0 33 -77 7 c-42 3 -105 6 -140 6 -59 0 -63 2
-63 23 0 21 48 507 53 537 2 13 134 15 1122 15 l1120 0 7 150 c14 261 -13
1246 -47 1785 -18 280 -18 280 -48 279 -12 -1 -96 -6 -187 -10z"/>
<path d="M13481 12043 c40 -416 79 -1718 61 -2024 -12 -186 -22 -220 -73 -238
-23 -8 -347 -11 -1110 -11 -1021 0 -1079 -1 -1079 -17 0 -10 -7 -79 -15 -153
-8 -74 -13 -135 -12 -136 1 -2 36 -4 77 -6 l75 -3 12 115 c6 63 12 118 12 123
1 4 503 7 1116 7 l1115 0 7 28 c13 43 8 1138 -5 1452 -21 485 -52 906 -69 933
-2 4 -30 7 -62 7 l-57 0 7 -77z"/>
<path d="M26144 12058 c37 -300 38 -1125 1 -1798 -9 -157 -27 -440 -41 -630
-13 -190 -27 -387 -31 -438 -3 -54 -11 -95 -17 -97 -25 -9 -533 -36 -831 -46
-419 -13 -660 -2 -1202 57 l-63 7 0 -775 0 -775 -96 -43 -96 -44 -201 13
c-111 6 -221 14 -244 18 -43 5 -43 5 -43 -26 0 -23 5 -31 18 -31 9 -1 163 -11
342 -24 l325 -23 68 34 67 33 0 785 0 785 39 0 c21 0 139 -11 262 -24 340 -37
606 -50 919 -42 373 8 873 36 886 48 7 8 65 826 84 1213 31 597 29 1332 -5
1675 -8 85 -15 158 -15 162 0 6 -88 28 -116 28 -12 0 -14 -9 -10 -42z"/>
<path d="M16186 12069 c6 -8 124 -168 263 -356 139 -189 255 -343 258 -343 3
0 3 6 0 13 -10 27 -499 682 -515 691 -14 8 -15 7 -6 -5z"/>
<path d="M21730 12067 c0 -27 89 -730 195 -1542 194 -1483 355 -2836 355
-2980 l0 -25 -303 0 c-167 0 -345 -3 -394 -6 l-90 -7 11 -35 10 -35 450 7
c248 4 451 8 452 9 1 2 -3 50 -51 502 -52 488 -124 1078 -236 1930 -123 944
-269 2096 -269 2133 0 41 -10 49 -72 56 -48 6 -58 5 -58 -7z"/>
<path d="M18370 11596 c0 -319 -11 -909 -35 -1921 -18 -772 -57 -2260 -59
-2261 0 -1 -149 -12 -331 -23 -425 -28 -395 -22 -395 -71 l0 -40 53 1 c28 0
223 13 432 27 l380 27 16 595 c9 327 24 885 33 1240 9 355 21 818 26 1030 6
212 13 674 17 1026 l6 642 -59 12 c-32 6 -65 13 -71 15 -10 3 -13 -61 -13
-299z"/>
<path d="M7780 10632 c0 -5 15 -21 33 -35 27 -20 46 -25 107 -28 l75 -4 3 33
3 32 -73 0 c-40 0 -90 3 -110 6 -23 4 -38 3 -38 -4z"/>
<path d="M7085 9179 c13 -100 63 -714 59 -718 -2 -2 -103 -12 -224 -21 -122
-10 -223 -19 -225 -21 -2 -2 -8 -196 -13 -431 -6 -235 -13 -431 -16 -436 -3
-5 -31 -12 -63 -15 -32 -3 -227 -24 -433 -46 -421 -45 -712 -72 -1395 -131
-258 -23 -500 -44 -537 -47 l-67 -6 19 -38 c11 -21 23 -40 27 -42 8 -5 265 15
733 57 157 14 366 32 465 41 263 23 725 68 1282 126 l112 12 5 51 c3 28 8 224
12 436 3 212 8 387 10 389 2 3 101 12 219 21 118 9 218 19 221 23 8 8 -61 815
-70 824 -4 4 -33 9 -66 11 l-60 4 5 -43z"/>
<path d="M16044 9060 c26 -612 30 -1163 10 -1551 l-6 -116 -67 -21 c-84 -27
-103 -27 -551 3 -201 14 -373 25 -383 25 -18 0 -16 -7 11 -48 7 -10 135 -22
523 -46 453 -29 520 -31 561 -19 l46 13 6 113 c19 364 14 1036 -10 1494 l-6
112 -60 83 c-33 46 -65 88 -70 93 -6 6 -8 -41 -4 -135z"/>
<path d="M13975 8993 c-46 -842 -82 -1222 -130 -1390 -25 -86 -24 -86 -209
-79 -302 12 -2957 59 -2962 53 -4 -3 -2 -18 3 -34 9 -28 11 -28 99 -31 497
-14 3210 -60 3217 -53 28 28 71 490 112 1211 21 368 20 391 -8 418 -17 16 -36
22 -69 22 l-46 0 -7 -117z"/>
<path d="M10496 8985 c4 -8 9 -15 13 -15 3 0 60 -12 126 -26 162 -34 384 -67
655 -98 266 -30 590 -57 602 -50 4 3 8 16 8 29 0 28 -14 31 -200 40 -300 16
-820 71 -1075 115 -140 24 -136 24 -129 5z"/>
<path d="M16978 8725 l-258 -192 48 -66 c26 -37 50 -67 55 -67 4 0 102 71 217
157 l210 158 0 102 c0 57 -3 103 -7 102 -5 0 -124 -87 -265 -194z"/>
<path d="M5542 8753 c2 -23 8 -29 36 -31 30 -3 32 -1 32 27 0 29 -3 31 -36 31
-33 0 -35 -2 -32 -27z"/>
<path d="M9447 8303 c-7 -260 -44 -661 -73 -779 -10 -38 -199 -82 -444 -104
-246 -21 -716 -13 -1095 20 -142 13 -135 13 -135 -9 0 -16 11 -21 68 -30 207
-33 409 -49 752 -61 407 -13 731 6 931 57 l67 16 6 46 c24 160 46 369 57 516
11 168 8 513 -6 548 -6 13 -19 17 -65 17 l-57 0 -6 -237z"/>
<path d="M20636 8408 c-3 -24 -15 -243 -26 -488 -11 -244 -22 -446 -24 -447
-2 -2 -324 13 -716 32 -392 20 -714 34 -716 32 -2 -2 10 -17 27 -33 l30 -29
757 -37 c416 -20 759 -35 761 -32 3 2 15 221 28 486 13 265 25 483 26 484 1 2
71 -2 155 -8 84 -5 156 -8 159 -5 3 4 3 17 -1 30 -5 23 -8 24 -198 36 -106 6
-207 14 -225 17 -31 5 -32 4 -37 -38z"/>
<path d="M27665 6653 c-277 -33 -477 -143 -520 -286 -18 -61 -19 -93 -4 -154
11 -42 16 -47 64 -69 89 -39 164 -50 253 -37 93 14 153 40 250 106 125 86 202
197 202 290 -1 42 -48 128 -80 144 -23 12 -96 15 -165 6z"/>
<path d="M28032 6573 c6 -21 8 -66 5 -100 -19 -246 -370 -518 -645 -501 l-63
4 43 -22 c111 -57 265 -70 384 -33 89 28 134 51 216 111 123 91 197 202 205
312 5 53 2 70 -20 113 -30 58 -67 104 -107 133 l-28 20 10 -37z"/>
<path d="M8536 5906 c-30 -62 -56 -84 -187 -158 -155 -88 -207 -158 -217 -289
-6 -84 9 -130 61 -186 72 -78 187 -92 280 -33 53 34 77 80 77 153 0 68 -28
113 -90 145 -57 28 -95 28 -153 -2 -35 -17 -47 -20 -47 -10 0 18 72 71 130 96
150 66 181 84 221 124 40 41 44 50 44 93 0 53 -18 82 -66 107 -27 13 -27 13
-53 -40z m-157 -437 c33 -12 61 -52 61 -89 0 -33 -53 -80 -90 -80 -40 0 -90
47 -90 85 0 47 20 69 86 95 1 0 15 -5 33 -11z"/>
<path d="M3560 5928 c0 -6 -12 -27 -26 -46 -45 -59 -74 -65 -319 -72 -258 -7
-293 -16 -370 -102 -138 -153 -72 -440 112 -494 91 -27 113 -15 147 79 5 17 9
15 31 -11 32 -38 108 -71 183 -78 182 -19 346 144 303 303 -21 78 -116 132
-209 119 -102 -14 -156 -70 -156 -161 0 -66 28 -107 89 -131 24 -9 42 -20 39
-25 -8 -14 -81 -11 -117 5 -39 16 -95 77 -102 111 -3 14 -7 36 -10 49 -6 28
-42 40 -79 26 -20 -7 -29 -23 -45 -78 -12 -38 -21 -74 -21 -81 0 -39 -77 37
-87 87 -28 134 18 228 123 252 21 5 118 10 215 10 201 0 282 17 338 69 42 39
44 104 5 150 -27 32 -44 40 -44 19z m-57 -419 c39 -49 2 -129 -61 -129 -75 0
-109 84 -56 137 21 21 32 24 62 19 20 -3 45 -15 55 -27z"/>
<path d="M5267 5850 c-33 -26 -51 -72 -43 -114 4 -20 44 -84 103 -162 131
-176 139 -184 184 -184 43 0 52 8 189 174 52 63 98 115 102 115 20 2 42 -55
41 -106 -2 -64 -38 -147 -137 -312 -35 -58 -78 -134 -95 -168 -60 -120 -61
-133 -61 -629 0 -310 4 -462 11 -485 59 -175 308 -197 400 -36 28 50 32 144 7
192 -18 33 -62 77 -95 94 -36 19 -134 14 -170 -9 -18 -11 -33 -16 -33 -10 0 5
13 17 29 26 l30 18 3 355 c4 417 -2 388 136 632 127 225 136 249 137 349 0
100 -19 146 -91 215 -61 58 -98 73 -133 54 -14 -8 -79 -79 -145 -157 -65 -79
-120 -142 -121 -140 -1 2 -52 72 -112 155 l-111 153 -25 -20z m576 -1741 c67
-72 2 -183 -97 -165 -47 9 -76 47 -76 100 1 47 14 69 56 91 39 20 82 11 117
-26z"/>
<path d="M22688 5731 c-96 -31 -148 -102 -148 -202 1 -82 23 -131 87 -191 98
-90 215 -132 368 -131 81 0 115 5 179 27 130 44 227 121 278 221 28 54 35 152
15 192 -18 34 -70 63 -115 63 -29 0 -29 -1 -35 -66 -12 -123 -76 -222 -175
-271 -58 -28 -87 -31 -305 -24 -59 2 -69 14 -20 24 43 9 91 43 113 79 22 37
27 118 9 165 -13 34 -55 80 -91 99 -34 18 -125 26 -160 15z m97 -105 c64 -27
76 -106 25 -158 -28 -27 -36 -30 -73 -25 -83 11 -118 104 -59 159 43 40 59 44
107 24z"/>
<path d="M19449 5711 c-94 -29 -99 -44 -99 -301 l0 -211 38 7 c62 10 106 36
124 74 15 30 18 65 18 238 l0 202 -27 -1 c-16 0 -40 -4 -54 -8z"/>
<path d="M21391 5685 c-206 -39 -343 -171 -367 -354 -8 -60 -19 -57 131 -35
83 12 156 15 305 11 207 -5 304 -18 455 -63 50 -14 98 -29 108 -31 39 -12 14
144 -40 251 -49 96 -159 178 -284 211 -82 22 -222 27 -308 10z m279 -131 c75
-22 145 -71 181 -123 16 -24 27 -46 24 -49 -2 -3 -30 2 -62 11 -32 9 -92 21
-133 27 -83 12 -327 15 -420 4 -72 -8 -75 0 -22 57 55 60 145 88 278 89 64 0
120 -6 154 -16z"/>
<path d="M14432 5626 c-101 -33 -153 -105 -154 -212 0 -51 5 -72 26 -109 90
-154 350 -147 426 11 33 67 26 167 -15 226 -56 78 -183 116 -283 84z m132
-111 c41 -20 58 -48 58 -100 0 -53 -17 -80 -60 -101 -95 -45 -192 54 -147 149
16 35 63 66 98 67 11 0 33 -7 51 -15z"/>
<path d="M10839 5105 c-2 -46 -7 -86 -10 -89 -3 -3 -31 8 -62 24 -229 125
-652 44 -763 -145 -31 -54 -37 -129 -12 -167 21 -33 76 -58 125 -58 l38 0 -3
43 c-4 61 31 124 92 165 76 50 140 65 270 60 97 -3 118 -7 164 -31 29 -15 56
-35 59 -43 11 -30 -138 -158 -237 -202 -25 -11 -80 -24 -122 -30 -190 -24
-324 -144 -358 -322 -14 -72 -13 -261 2 -318 16 -65 86 -134 153 -151 78 -20
170 5 222 61 79 84 67 236 -23 304 -34 26 -45 29 -113 29 -63 0 -81 -4 -108
-23 -18 -13 -33 -19 -33 -13 0 6 13 20 29 32 23 17 31 32 36 70 18 133 146
211 319 195 129 -12 216 -69 268 -174 l33 -67 4 -213 3 -213 32 6 c44 10 85
35 110 68 21 28 21 37 21 450 0 385 -2 427 -19 475 l-18 53 27 60 c58 131 25
221 -91 242 l-32 6 -3 -84z m-29 -481 c0 -86 2 -98 25 -128 41 -54 28 -51 -36
8 -33 31 -78 66 -100 79 -21 12 -38 25 -36 28 3 9 131 108 140 108 4 1 7 -42
7 -95z m-513 -500 c45 -29 46 -115 3 -159 -15 -14 -34 -20 -66 -20 -38 0 -50
5 -70 28 -34 39 -40 73 -20 114 28 58 95 75 153 37z"/>
<path d="M7138 5067 c6 -104 -23 -168 -102 -226 -70 -52 -73 -76 -17 -136 22
-24 44 -60 50 -81 6 -23 11 -138 11 -274 0 -271 -3 -284 -85 -335 -41 -26 -57
-29 -119 -29 -82 0 -117 15 -165 69 -30 34 -31 39 -31 123 0 101 12 131 109
290 90 146 121 219 128 299 15 178 -69 310 -210 329 -45 6 -50 4 -105 -38
l-57 -46 -55 44 c-65 52 -87 54 -161 17 -104 -54 -162 -167 -163 -323 -1 -87
2 -100 29 -155 43 -86 93 -118 190 -123 61 -3 82 0 120 18 115 56 147 214 61
304 -56 60 -160 71 -235 25 -18 -11 -35 -18 -38 -15 -10 9 18 72 47 108 16 20
43 41 59 46 27 10 35 7 79 -29 28 -21 58 -39 67 -39 9 0 39 18 67 39 39 32 54
38 71 32 56 -20 89 -132 68 -230 -14 -64 -36 -108 -121 -241 -113 -176 -123
-201 -128 -311 -4 -82 -1 -102 18 -147 43 -99 150 -171 288 -192 180 -28 353
54 421 199 26 56 26 58 26 301 0 287 -6 322 -71 386 l-41 42 51 33 c67 44 113
113 121 183 12 93 -25 134 -135 151 l-45 7 3 -75z m-660 -342 c26 -31 30 -90
7 -123 -32 -44 -121 -45 -157 -1 -36 43 -15 128 36 150 35 14 89 2 114 -26z"/>
<path d="M2250 5077 c-83 -43 -80 -25 -80 -587 0 -494 0 -496 23 -540 80 -157
312 -154 394 4 21 40 21 141 1 181 -18 33 -62 77 -95 94 -36 19 -134 14 -171
-9 -18 -11 -35 -20 -39 -20 -12 0 30 40 48 45 18 6 19 25 19 431 l0 424 -28 0
c-16 0 -48 -10 -72 -23z m174 -941 c74 -31 88 -106 31 -163 -32 -32 -40 -35
-77 -30 -22 3 -49 14 -60 24 -49 49 -38 136 22 165 42 22 42 22 84 4z"/>
<path d="M3058 5084 c-126 -30 -241 -112 -289 -205 -29 -59 -37 -155 -15 -201
20 -41 80 -78 127 -78 l34 0 0 68 c1 91 25 151 82 202 53 46 121 70 203 70
115 0 189 -41 236 -130 17 -31 19 -64 22 -296 l3 -261 30 -17 c16 -9 29 -21
29 -26 0 -6 -15 -1 -32 10 -40 24 -135 27 -176 6 -125 -66 -149 -234 -47 -333
100 -96 273 -74 342 45 l28 47 0 410 c0 406 0 411 -23 467 -47 117 -157 202
-292 228 -72 14 -193 11 -262 -6z m435 -975 c68 -73 -1 -189 -99 -165 -45 12
-74 50 -74 98 0 53 21 85 63 97 45 12 78 4 110 -30z"/>
<path d="M3977 5090 c-81 -24 -137 -104 -137 -194 0 -92 36 -150 115 -187 52
-24 99 -23 154 1 55 25 66 18 17 -11 l-36 -21 0 -206 c0 -307 20 -389 116
-493 57 -60 113 -94 193 -119 242 -76 502 14 599 207 49 97 52 130 52 598 l0
435 -27 0 c-42 -1 -109 -35 -130 -66 -16 -26 -18 -63 -23 -434 -5 -400 -5
-406 -29 -452 -27 -56 -77 -103 -140 -132 -35 -15 -66 -20 -131 -20 -100 0
-156 20 -213 78 -74 73 -71 59 -77 481 -6 410 -8 424 -63 484 -49 53 -157 76
-240 51z m138 -116 c29 -19 48 -72 39 -108 -9 -35 -59 -76 -94 -76 -59 0 -110
46 -110 100 0 28 26 76 47 89 27 16 91 13 118 -5z"/>
<path d="M7744 5089 c-111 -32 -188 -139 -205 -286 -6 -44 -9 -253 -7 -464 3
-342 5 -387 20 -416 23 -42 61 -70 112 -84 l41 -11 258 261 c175 177 264 275
277 304 34 74 21 167 -33 226 -75 82 -230 79 -309 -5 -36 -39 -48 -74 -48
-142 0 -91 44 -144 145 -174 l40 -13 -45 -2 c-44 -3 -49 -7 -187 -151 -136
-142 -188 -180 -124 -91 l31 42 0 371 c0 343 2 374 19 413 21 45 62 73 107 73
18 0 49 -16 83 -44 66 -51 121 -86 137 -86 7 0 52 29 100 65 98 72 132 80 178
44 62 -49 61 -35 64 -587 l3 -503 32 6 c48 10 89 37 115 75 l23 34 -3 461 -3
460 -29 63 c-49 106 -147 172 -257 172 -52 0 -75 -11 -152 -69 -36 -28 -70
-51 -75 -51 -5 0 -27 14 -48 31 -86 70 -125 89 -178 88 -28 0 -65 -5 -82 -10z
m345 -520 c64 -22 81 -110 32 -160 -85 -84 -212 27 -146 127 26 40 63 51 114
33z"/>
<path d="M8936 5090 c-16 -5 -40 -19 -53 -32 -54 -50 -53 -41 -53 -555 0 -289
4 -492 10 -514 27 -98 103 -153 210 -153 103 0 177 51 208 143 30 86 -8 192
-82 236 -55 32 -134 34 -189 5 -44 -24 -50 -9 -7 17 l30 17 0 423 0 423 -22
-1 c-13 0 -36 -5 -52 -9z m187 -981 c68 -73 -1 -189 -99 -165 -72 19 -98 106
-49 165 42 49 102 49 148 0z"/>
<path d="M9470 5078 c-33 -17 -51 -35 -67 -68 -23 -44 -23 -47 -23 -502 0
-287 4 -476 11 -507 29 -139 187 -208 319 -141 130 66 149 258 35 346 -52 39
-147 46 -201 15 -46 -27 -56 -20 -15 10 l31 23 0 423 0 423 -23 0 c-12 0 -43
-10 -67 -22z m176 -943 c46 -19 70 -72 54 -120 -15 -44 -41 -66 -87 -72 -32
-4 -45 0 -71 22 -60 50 -51 133 18 167 42 22 42 22 86 3z"/>
<path d="M11592 5080 c-99 -26 -165 -64 -233 -131 -63 -63 -104 -138 -119
-218 -6 -30 -10 -209 -10 -405 0 -320 2 -355 19 -392 22 -49 60 -80 115 -95
l41 -11 248 253 c137 140 261 272 275 293 23 33 27 50 27 106 0 55 -4 73 -27
107 -37 56 -86 84 -158 90 -145 13 -256 -112 -220 -248 16 -58 72 -112 136
-130 l49 -13 -45 -4 c-43 -3 -51 -9 -192 -150 -140 -139 -179 -169 -124 -97
l25 32 3 329 3 329 30 53 c35 64 71 96 145 131 49 23 67 26 170 26 103 0 121
-3 170 -26 77 -36 115 -71 147 -137 l28 -57 3 -442 3 -442 32 6 c44 8 86 33
111 66 20 28 21 40 24 409 2 319 0 390 -13 441 -38 148 -141 255 -303 315 -95
35 -257 40 -360 12z m231 -540 c30 -34 34 -67 12 -110 -18 -35 -43 -50 -85
-50 -42 0 -67 15 -86 52 -27 52 0 119 56 141 29 12 75 -3 103 -33z"/>
<path d="M13006 5086 c-163 -61 -178 -293 -24 -370 62 -31 108 -33 167 -6 55
25 64 20 17 -10 l-36 -22 0 -284 0 -285 32 -40 c17 -21 29 -41 27 -44 -3 -2
-151 159 -329 358 -178 199 -329 363 -335 365 -18 4 -53 -44 -61 -82 -3 -20 0
-47 9 -69 9 -20 163 -201 343 -402 320 -357 328 -366 358 -359 47 10 81 30
110 65 l27 31 -3 517 -3 517 -27 41 c-39 59 -87 85 -166 90 -43 2 -81 -2 -106
-11z m157 -124 c60 -63 17 -172 -68 -172 -47 0 -71 13 -90 50 -39 75 5 150 87
150 35 0 50 -6 71 -28z"/>
<path d="M13765 5082 c-67 -22 -135 -90 -166 -168 -24 -58 -24 -63 -27 -494
-3 -382 -1 -439 13 -477 20 -52 62 -89 118 -104 l42 -11 248 253 c137 140 261
272 275 293 37 54 39 152 3 209 -35 56 -88 88 -160 94 -146 13 -257 -112 -221
-248 16 -58 72 -112 136 -130 l49 -13 -45 -4 c-43 -3 -51 -9 -192 -150 -140
-139 -179 -169 -124 -97 l25 32 3 379 c3 350 4 382 22 418 22 44 68 76 109 76
19 0 56 -21 114 -65 47 -36 94 -65 103 -65 9 0 56 29 103 65 58 44 95 65 114
65 41 0 87 -32 109 -76 18 -37 19 -69 22 -536 l3 -497 32 6 c44 8 86 33 111
66 21 28 21 36 21 490 0 455 0 463 -22 517 -47 116 -133 179 -253 188 -71 5
-55 12 -200 -92 l-40 -29 -40 29 c-135 96 -130 94 -184 93 -28 0 -73 -8 -101
-17z m398 -542 c30 -34 34 -67 12 -110 -18 -35 -43 -50 -85 -50 -42 0 -67 15
-86 52 -27 52 0 119 56 141 29 12 75 -3 103 -33z"/>
<path d="M15103 5086 c-124 -30 -226 -106 -268 -199 -55 -121 -37 -215 47
-256 24 -11 56 -21 71 -21 27 0 27 1 27 69 0 157 79 247 227 259 116 9 202
-29 246 -111 22 -42 22 -47 25 -520 l3 -478 37 7 c52 9 102 36 126 68 20 27
21 39 21 444 0 406 -1 419 -23 489 -41 131 -145 225 -279 252 -72 14 -194 13
-260 -3z"/>
<path d="M16010 5077 c-83 -43 -80 -25 -80 -587 0 -494 0 -496 23 -540 80
-157 312 -154 394 4 21 40 21 141 1 181 -18 33 -62 77 -95 94 -36 19 -134 14
-171 -9 -18 -11 -35 -20 -39 -20 -12 0 30 40 48 45 18 6 19 25 19 431 l0 424
-28 0 c-16 0 -48 -10 -72 -23z m174 -941 c74 -31 88 -106 31 -163 -32 -32 -40
-35 -77 -30 -22 3 -49 14 -60 24 -49 49 -38 136 22 165 42 22 42 22 84 4z"/>
<path d="M16570 5078 c-24 -13 -53 -36 -64 -51 -21 -28 -21 -39 -21 -535 l0
-507 28 -47 c40 -69 101 -102 187 -102 81 0 140 29 185 92 27 39 30 52 30 116
0 62 -4 78 -28 114 -51 78 -166 107 -250 62 -44 -24 -50 -9 -7 17 l30 17 0
423 0 423 -23 0 c-12 0 -43 -10 -67 -22z m164 -938 c8 0 25 -12 40 -26 19 -20
26 -37 26 -66 0 -50 -13 -74 -50 -93 -74 -38 -150 9 -150 94 0 52 62 107 108
95 8 -2 19 -4 26 -4z"/>
<path d="M17175 5081 c-49 -22 -99 -77 -115 -127 -17 -50 -6 -129 24 -174 52
-79 163 -111 240 -71 49 25 58 21 17 -9 l-31 -21 0 -367 c0 -338 1 -370 18
-402 19 -35 64 -64 118 -75 l32 -6 202 398 c111 219 208 404 214 410 22 25 70
26 99 3 l27 -21 0 -395 0 -395 38 7 c52 9 93 34 119 74 23 33 23 37 23 374 0
308 -2 345 -19 381 -10 22 -25 46 -34 54 -16 12 -14 17 17 51 63 70 70 152 21
237 -33 56 -107 93 -185 93 -149 0 -255 -136 -206 -265 10 -24 24 -49 32 -55
21 -18 18 -25 -27 -55 -36 -26 -56 -60 -197 -341 -86 -172 -160 -310 -164
-308 -4 2 6 34 23 70 l29 66 0 347 c0 379 -5 419 -56 475 -60 63 -177 85 -259
47z m166 -120 c64 -65 20 -171 -71 -171 -33 0 -48 6 -71 29 -64 65 -20 171 71
171 33 0 48 -6 71 -29z m730 0 c63 -63 15 -171 -76 -171 -42 0 -95 59 -95 105
0 53 44 95 100 95 33 0 48 -6 71 -29z"/>
<path d="M18515 5082 c-49 -23 -99 -78 -115 -128 -17 -50 -6 -129 24 -174 52
-79 163 -111 240 -71 49 25 58 21 17 -9 l-31 -21 0 -385 c0 -431 0 -433 66
-454 52 -18 83 -6 272 104 89 52 162 89 162 83 0 -31 23 -90 47 -117 63 -76
194 -99 282 -50 127 71 158 235 63 331 -21 20 -43 38 -49 40 -9 3 -6 18 12 53
l25 49 0 384 0 383 -28 0 c-38 0 -112 -39 -136 -73 -20 -27 -21 -45 -26 -363
l-5 -334 -25 -24 c-14 -13 -126 -83 -250 -155 l-225 -131 -5 469 -5 468 -30
48 c-39 62 -89 89 -175 93 -48 2 -76 -2 -105 -16z m166 -121 c64 -65 20 -171
-71 -171 -33 0 -48 6 -71 29 -64 65 -20 171 71 171 33 0 48 -6 71 -29z m772
-841 c58 -65 19 -165 -69 -177 -36 -5 -45 -1 -77 27 -32 27 -37 38 -37 75 0
104 114 151 183 75z"/>
<path d="M20273 5076 c-164 -77 -145 -330 29 -377 48 -12 112 -5 146 17 13 9
26 13 29 10 3 -3 -8 -13 -26 -23 l-31 -18 0 -295 0 -294 32 -33 c18 -18 27
-33 20 -33 -6 0 -156 162 -333 360 -177 198 -328 360 -336 360 -22 0 -53 -62
-53 -105 0 -22 8 -53 19 -70 10 -16 161 -190 337 -385 314 -350 319 -355 354
-352 44 4 87 28 114 65 21 28 21 39 24 505 2 333 0 493 -8 530 -30 136 -180
201 -317 138z m158 -96 c22 -12 49 -61 49 -89 0 -87 -106 -132 -170 -73 -67
62 -28 172 62 172 22 0 48 -5 59 -10z"/>
<path d="M20920 5085 c-57 -26 -99 -74 -116 -133 -49 -169 108 -313 265 -242
55 25 66 18 17 -11 l-37 -22 3 -366 c3 -347 4 -368 23 -401 23 -39 66 -67 109
-72 l29 -3 165 433 c91 237 169 432 172 432 4 0 73 -177 155 -392 197 -520
178 -480 212 -472 47 11 85 37 104 74 18 33 19 68 19 612 l0 578 -22 0 c-38
-1 -105 -36 -125 -66 -16 -26 -18 -59 -21 -376 l-3 -349 31 -83 c31 -84 38
-118 21 -100 -6 5 -78 187 -161 404 -83 217 -159 401 -168 408 -27 21 -80 15
-96 -10 -8 -13 -80 -196 -161 -408 -81 -212 -151 -389 -156 -395 -15 -16 -10
7 21 100 l30 89 0 282 c0 154 -5 305 -10 335 -12 63 -47 117 -92 143 -43 26
-161 32 -208 11z m159 -121 c67 -56 24 -174 -64 -174 -47 0 -71 13 -90 50 -24
46 -19 87 14 121 39 39 96 40 140 3z"/>
<path d="M22656 5085 c-150 -38 -286 -148 -356 -288 -22 -44 -40 -89 -40 -100
0 -12 28 -71 63 -132 l62 -110 5 -262 c5 -246 6 -263 26 -290 26 -35 67 -59
117 -67 l37 -7 0 318 0 319 -64 114 c-63 114 -64 115 -50 149 55 132 209 219
372 209 124 -7 208 -54 255 -143 22 -39 22 -50 25 -503 l3 -463 37 7 c57 10
100 33 125 68 22 30 22 37 25 396 2 237 -1 388 -8 429 -28 163 -134 284 -296
342 -78 28 -254 35 -338 14z"/>
<path d="M23934 5085 c-141 -31 -274 -131 -335 -253 l-34 -67 -3 -403 c-3
-362 -1 -406 14 -438 19 -40 73 -79 120 -87 30 -6 43 5 279 242 135 137 258
265 272 284 48 68 44 183 -10 244 -127 145 -367 62 -367 -127 0 -92 55 -158
155 -186 l30 -8 -40 -4 c-37 -3 -53 -16 -187 -150 -143 -142 -189 -176 -128
-96 l29 39 1 320 c0 314 1 321 24 370 55 120 182 182 350 172 145 -8 243 -66
292 -172 l24 -50 0 -443 0 -444 33 7 c55 11 99 40 119 76 17 32 18 60 16 444
l-3 410 -32 66 c-59 120 -191 220 -335 254 -77 18 -202 18 -284 0z m186 -520
c88 -45 54 -185 -45 -185 -97 0 -133 138 -47 184 35 19 56 20 92 1z"/>
<path d="M25480 5077 c-83 -43 -80 -25 -80 -587 0 -494 0 -496 23 -540 80
-157 312 -154 394 4 21 40 21 141 1 181 -18 33 -62 77 -95 94 -36 19 -134 14
-171 -9 -18 -11 -35 -20 -39 -20 -12 0 30 40 48 45 18 6 19 25 19 431 l0 424
-28 0 c-16 0 -48 -10 -72 -23z m174 -941 c74 -31 88 -106 31 -163 -32 -32 -40
-35 -77 -30 -22 3 -49 14 -60 24 -49 49 -38 136 22 165 42 22 42 22 84 4z"/>
<path d="M26040 5078 c-24 -13 -53 -36 -64 -51 -21 -28 -21 -39 -21 -535 l0
-507 28 -47 c40 -69 101 -102 187 -102 81 0 140 29 185 92 27 39 30 52 30 116
0 62 -4 78 -28 114 -51 78 -166 107 -250 62 -44 -24 -50 -9 -7 17 l30 17 0
423 0 423 -23 0 c-12 0 -43 -10 -67 -22z m164 -938 c8 0 25 -12 40 -26 19 -20
26 -37 26 -66 0 -50 -13 -74 -50 -93 -74 -38 -150 9 -150 94 0 52 62 107 108
95 8 -2 19 -4 26 -4z"/>
<path d="M26911 5089 c-169 -33 -301 -114 -347 -213 -29 -62 -30 -101 -4 -143
24 -40 67 -63 118 -63 l40 0 4 60 c6 79 40 123 133 170 64 32 78 35 176 38
125 5 195 -11 251 -58 60 -50 80 -105 87 -240 5 -104 9 -121 29 -142 46 -50
20 -38 -40 18 -104 96 -211 131 -369 121 -147 -9 -256 -62 -331 -163 -60 -78
-70 -119 -76 -293 -5 -181 2 -214 60 -277 75 -81 192 -94 286 -30 125 85 120
281 -11 347 -54 28 -152 24 -197 -9 -38 -29 -40 -12 -2 20 22 18 30 36 35 73
10 71 50 123 122 160 52 27 68 30 149 30 156 0 255 -55 313 -173 28 -56 28
-60 31 -275 l4 -218 31 6 c62 13 101 40 125 85 22 44 22 50 22 416 0 206 -4
395 -10 425 -15 79 -63 170 -116 219 -54 50 -146 94 -229 109 -68 13 -220 13
-284 0z m-77 -949 c8 0 25 -12 40 -26 47 -47 31 -131 -31 -163 -39 -20 -73
-13 -109 23 -39 39 -45 85 -18 125 19 26 72 53 92 46 8 -3 19 -5 26 -5z"/>
<path d="M27895 5025 c-90 -32 -146 -137 -124 -234 14 -64 32 -93 89 -144 78
-70 193 -107 334 -107 233 1 401 121 422 303 11 93 -30 142 -125 154 l-52 6 7
-65 c9 -90 -13 -153 -71 -207 -55 -51 -96 -61 -227 -59 l-106 2 49 22 c100 47
126 170 56 268 -45 63 -164 92 -252 61z m120 -99 c41 -17 55 -42 55 -94 0 -51
-43 -92 -97 -92 -50 0 -93 45 -93 97 1 44 15 66 56 88 36 18 37 18 79 1z"/>
<path d="M27932 4388 c-100 -17 -166 -96 -165 -198 1 -70 23 -121 78 -176 79
-78 191 -116 345 -115 195 0 334 69 394 194 70 146 28 257 -97 257 l-47 0 6
-54 c13 -109 -32 -203 -119 -248 -36 -19 -60 -22 -164 -23 -68 -1 -123 2 -123
7 0 4 7 8 16 8 29 0 90 41 110 73 25 44 25 131 -1 176 -46 79 -135 117 -233
99z m109 -127 c40 -40 41 -101 3 -136 -61 -57 -164 -16 -164 64 0 90 99 134
161 72z"/>
<path d="M28490 3347 c-19 -7 -44 -27 -57 -46 -22 -32 -23 -44 -23 -192 l0
-159 30 0 c45 0 96 25 117 56 15 24 19 54 22 191 l3 163 -28 -1 c-16 0 -45 -5
-64 -12z"/>
<path d="M28478 2839 c-52 -27 -68 -63 -68 -150 l0 -71 -40 35 c-83 76 -188
111 -325 111 -211 -2 -367 -80 -442 -221 -29 -53 -61 -178 -49 -190 2 -3 62 3
132 12 100 14 170 16 323 12 207 -6 311 -22 469 -72 42 -14 83 -25 90 -25 9 0
12 65 12 290 l0 290 -32 0 c-18 -1 -50 -10 -70 -21z m-227 -236 c62 -31 159
-118 159 -143 0 -13 -6 -13 -50 0 -122 36 -406 53 -570 34 -70 -8 -74 -1 -30
50 61 69 153 97 310 93 108 -2 120 -4 181 -34z"/>
<path d="M16242 2829 c-50 -25 -76 -58 -91 -117 -39 -142 87 -258 227 -209 23
8 42 11 42 7 0 -4 -19 -15 -42 -26 -24 -10 -49 -27 -57 -37 -7 -10 -38 -34
-68 -54 -49 -31 -54 -37 -51 -66 5 -54 39 -63 183 -49 348 33 524 167 529 399
1 58 -3 77 -20 100 -26 36 -79 63 -123 63 -27 0 -32 -3 -27 -17 14 -37 18
-132 6 -186 -16 -78 -63 -144 -130 -185 -58 -35 -156 -69 -224 -78 l-41 -5 55
28 c164 84 189 357 40 433 -54 28 -150 27 -208 -1z m141 -91 c34 -17 46 -39
47 -80 0 -49 -48 -93 -94 -84 -75 14 -101 103 -45 150 33 28 59 32 92 14z"/>
<path d="M16047 2159 c-101 -24 -199 -105 -243 -202 -23 -51 -28 -76 -29 -142
0 -69 4 -88 30 -140 39 -77 89 -114 168 -122 73 -7 134 15 181 67 86 96 65
243 -44 298 -57 28 -105 28 -163 -2 -26 -13 -47 -19 -47 -15 0 19 74 89 114
108 56 28 164 28 222 2 74 -34 111 -109 101 -207 -7 -66 -37 -125 -132 -254
-115 -156 -128 -186 -133 -301 -4 -82 -1 -102 18 -147 13 -29 42 -69 67 -93
167 -154 472 -135 606 37 67 87 67 91 67 636 l0 488 -27 0 c-43 0 -112 -39
-131 -74 -15 -28 -18 -80 -22 -483 -5 -439 -6 -452 -26 -480 -72 -97 -248
-107 -334 -18 -34 35 -35 39 -38 125 -5 106 6 131 122 295 113 159 131 202
131 305 0 72 -4 93 -27 140 -31 63 -48 84 -100 124 -75 56 -222 81 -331 55z
m5 -320 c27 -15 51 -74 43 -110 -4 -16 -21 -40 -38 -55 -64 -54 -157 -8 -157
77 0 76 84 124 152 88z"/>
<path d="M17390 2155 c-186 -37 -315 -130 -341 -245 -18 -81 36 -143 135 -156
l48 -7 -6 31 c-11 49 11 113 55 154 61 59 149 81 297 77 108 -4 124 -7 177
-34 75 -38 119 -95 135 -171 8 -37 11 -138 8 -297 -3 -229 -5 -244 -27 -290
-30 -61 -99 -121 -164 -144 -62 -21 -189 -23 -264 -4 -98 24 -173 99 -173 173
0 27 -5 38 -19 43 -18 5 -60 45 -48 45 3 0 23 -10 43 -22 84 -50 204 -15 254
74 54 95 17 224 -79 275 -34 18 -60 23 -113 23 -79 0 -130 -21 -171 -70 -41
-48 -49 -98 -45 -264 3 -130 6 -158 25 -199 71 -154 227 -238 448 -240 80 -1
126 4 170 17 177 53 300 176 334 334 14 67 15 500 1 573 -31 164 -162 283
-356 324 -84 18 -236 18 -324 0z m-9 -604 c64 -65 20 -171 -71 -171 -33 0 -48
6 -71 29 -64 65 -20 171 71 171 33 0 48 -6 71 -29z"/>
<path d="M18415 2152 c-53 -25 -101 -81 -116 -134 -44 -164 113 -305 267 -239
l49 21 -32 -28 -33 -28 0 -206 0 -205 -42 -6 c-166 -22 -227 -259 -96 -371 53
-46 128 -63 200 -45 67 16 134 75 149 133 22 82 1 85 258 -35 219 -102 236
-108 270 -99 20 5 47 17 60 26 51 36 51 40 51 659 l0 575 -28 0 c-46 0 -115
-41 -134 -80 -16 -32 -18 -78 -18 -522 0 -269 -4 -488 -9 -488 -4 0 -114 50
-245 111 l-236 112 0 351 c0 350 0 351 -24 403 -35 74 -85 105 -179 110 -56 3
-81 0 -112 -15z m166 -121 c64 -65 20 -171 -71 -171 -33 0 -48 6 -71 29 -64
65 -20 171 71 171 33 0 48 -6 71 -29z m37 -821 c116 -71 19 -245 -104 -186
-50 23 -71 73 -55 126 21 72 94 99 159 60z"/>
<path d="M19965 2154 c-148 -33 -286 -121 -326 -209 -50 -108 7 -205 121 -205
l40 0 0 50 c0 63 17 98 72 144 59 51 146 76 262 76 106 0 145 -9 208 -49 71
-45 98 -109 105 -252 5 -100 9 -117 29 -142 45 -54 24 -47 -35 12 -93 93 -193
131 -340 131 -189 -1 -339 -88 -409 -238 -25 -54 -27 -67 -30 -232 -3 -168 -3
-177 20 -220 46 -86 156 -134 250 -110 103 27 162 102 162 205 0 65 -11 94
-53 138 -39 43 -74 57 -139 57 -46 0 -67 -5 -96 -25 -44 -29 -48 -17 -6 18 22
19 30 34 30 59 0 41 30 106 61 135 52 48 117 68 219 68 81 0 103 -4 150 -26
79 -37 115 -72 152 -146 l32 -66 4 -213 4 -213 32 6 c82 16 131 67 141 147 4
30 5 218 3 418 -4 340 -6 367 -26 421 -44 121 -135 208 -262 249 -87 28 -276
34 -375 12z m-12 -975 c40 -43 37 -91 -7 -135 -21 -21 -44 -34 -60 -34 -90 0
-138 100 -81 169 42 49 102 49 148 0z"/>
<path d="M20933 2146 c-164 -77 -145 -330 29 -377 48 -12 112 -5 146 17 13 9
26 13 29 10 3 -3 -9 -13 -26 -23 l-32 -18 3 -265 3 -265 31 -66 c55 -116 142
-191 267 -231 91 -30 258 -29 346 1 132 46 225 130 273 248 23 57 23 63 26
526 l3 467 -29 0 c-44 0 -112 -41 -133 -80 -18 -32 -19 -64 -19 -411 0 -428
-3 -450 -71 -524 -59 -64 -125 -90 -229 -89 -57 1 -98 6 -123 18 -51 22 -114
81 -140 130 -21 39 -22 55 -27 421 -4 276 -9 388 -18 410 -48 111 -189 157
-309 101z m158 -96 c22 -12 49 -61 49 -89 0 -87 -106 -132 -170 -73 -67 62
-28 172 62 172 22 0 48 -5 59 -10z"/>
<path d="M22367 2160 c-81 -24 -137 -104 -137 -194 0 -92 36 -150 115 -187 52
-24 99 -23 154 1 55 25 66 18 17 -11 l-36 -21 1 -371 c0 -418 2 -431 61 -460
55 -27 89 -16 268 89 88 52 164 94 170 94 5 0 10 -10 10 -22 0 -39 41 -109 79
-133 110 -73 259 -45 331 61 17 26 25 54 28 100 5 80 -22 143 -78 180 l-38 26
24 35 24 36 0 393 0 394 -28 0 c-44 0 -112 -41 -133 -80 -17 -32 -19 -62 -19
-350 0 -282 -2 -318 -18 -344 -12 -20 -89 -71 -252 -166 l-235 -138 -5 457
c-5 494 -6 498 -63 560 -49 53 -157 76 -240 51z m138 -116 c29 -19 48 -72 39
-108 -9 -35 -59 -76 -94 -76 -59 0 -110 46 -110 100 0 28 26 76 47 89 27 16
91 13 118 -5z m756 -831 c44 -26 64 -77 50 -125 -13 -42 -58 -78 -99 -78 -55
0 -112 56 -112 110 0 33 28 78 58 94 36 20 68 20 103 -1z"/>
<path d="M23756 2160 c-16 -5 -40 -19 -53 -32 -54 -50 -53 -41 -53 -555 0
-289 4 -492 10 -514 27 -98 103 -153 210 -153 103 0 177 51 208 143 30 86 -8
192 -82 236 -55 32 -134 34 -189 5 -44 -24 -50 -9 -7 17 l30 17 0 423 0 423
-22 -1 c-13 0 -36 -5 -52 -9z m187 -981 c68 -73 -1 -189 -99 -165 -72 19 -98
106 -49 165 42 49 102 49 148 0z"/>
<path d="M24290 2148 c-33 -17 -51 -35 -67 -68 -23 -44 -23 -47 -23 -502 0
-287 4 -476 11 -507 29 -139 187 -208 319 -141 130 66 149 258 35 346 -52 39
-147 46 -201 15 -46 -27 -56 -20 -15 10 l31 23 0 423 0 423 -23 0 c-12 0 -43
-10 -67 -22z m176 -943 c46 -19 70 -72 54 -120 -15 -44 -41 -66 -87 -72 -32
-4 -45 0 -71 22 -60 50 -51 133 18 167 42 22 42 22 86 3z"/>
<path d="M24955 2151 c-48 -22 -79 -54 -100 -103 -13 -32 -15 -109 -15 -536
l0 -499 23 -33 c28 -41 63 -67 104 -75 l31 -6 172 275 c94 152 174 276 178
276 4 0 84 -123 177 -273 164 -263 171 -272 199 -269 46 5 82 28 108 69 l23
38 3 578 3 577 -28 0 c-15 0 -47 -9 -71 -20 -33 -15 -47 -29 -62 -62 -18 -40
-20 -69 -20 -450 l0 -407 30 -51 c32 -54 40 -85 16 -60 -8 8 -82 125 -166 260
-83 135 -161 253 -172 263 -25 21 -56 22 -79 1 -10 -9 -91 -132 -180 -275 -90
-142 -167 -259 -172 -259 -5 0 5 25 22 55 l31 55 0 267 0 268 -31 18 c-46 26
-30 31 22 7 81 -36 165 -17 226 53 54 62 58 173 9 248 -53 79 -188 113 -281
70z m156 -101 c10 -6 26 -25 35 -42 50 -96 -71 -193 -154 -123 -74 62 -34 174
61 175 21 0 47 -5 58 -10z"/>
<path d="M26175 2152 c-49 -23 -99 -78 -115 -128 -17 -50 -6 -129 24 -174 52
-79 163 -111 240 -71 49 25 58 21 17 -9 l-31 -21 0 -385 c0 -431 0 -433 66
-454 52 -18 83 -6 272 104 89 52 162 89 162 83 0 -31 23 -90 47 -117 63 -76
194 -99 282 -50 127 71 158 235 63 331 -21 20 -43 38 -49 40 -9 3 -6 18 12 53
l25 49 0 384 0 383 -28 0 c-38 0 -112 -39 -136 -73 -20 -27 -21 -45 -26 -363
l-5 -334 -25 -24 c-14 -13 -126 -83 -250 -155 l-225 -131 -5 469 -5 468 -30
48 c-39 62 -89 89 -175 93 -48 2 -76 -2 -105 -16z m166 -121 c23 -23 29 -38
29 -71 0 -91 -106 -135 -171 -71 -64 65 -20 171 71 171 33 0 48 -6 71 -29z
m772 -841 c58 -65 19 -165 -69 -177 -36 -5 -45 -1 -77 27 -32 27 -37 38 -37
75 0 104 114 151 183 75z"/>
<path d="M27535 2151 c-49 -22 -99 -77 -115 -127 -17 -50 -6 -129 24 -174 52
-79 163 -111 240 -71 49 26 58 21 16 -9 l-31 -22 3 -371 c3 -371 3 -372 26
-405 28 -39 66 -60 116 -64 l37 -3 208 550 c201 535 208 550 235 553 36 4 69
-18 90 -61 14 -31 16 -92 16 -541 l0 -507 38 7 c53 9 93 35 117 74 19 34 20
50 20 485 0 398 -2 456 -17 506 -23 74 -82 139 -150 169 -64 28 -166 38 -207
20 -36 -15 -33 -7 -241 -562 -84 -224 -157 -405 -161 -402 -4 2 3 37 17 76 23
70 24 78 24 398 0 345 -2 368 -48 429 -50 67 -171 92 -257 52z m158 -111 c32
-25 44 -79 27 -120 -26 -63 -105 -80 -159 -34 -26 22 -31 33 -31 72 0 36 6 52
27 74 34 35 97 39 136 8z"/>
<path d="M18782 789 c-62 -31 -95 -85 -100 -163 -4 -76 24 -129 83 -163 48
-27 135 -31 179 -8 15 8 31 15 34 15 11 0 -32 -40 -49 -45 -38 -12 -15 -109
37 -159 90 -87 281 -88 372 -3 57 53 62 77 62 322 0 225 0 225 -22 225 -32 0
-101 -36 -118 -62 -11 -17 -16 -66 -20 -201 -5 -173 -6 -179 -29 -198 -30 -24
-85 -25 -110 0 -16 16 -19 39 -23 173 -4 140 -7 159 -29 199 -46 84 -170 115
-267 68z m141 -91 c34 -18 46 -40 47 -84 0 -80 -95 -120 -154 -65 -39 37 -37
100 5 135 33 28 67 33 102 14z"/>
</g>
</svg>
